<svg width="50" height="50" viewBox="0 0 50 50" fill="none" xmlns="http://www.w3.org/2000/svg">
<path d="M23.6187 37.0711C23.6144 34.7263 23.6252 32.3836 23.6122 30.0409C20.7437 30.0452 17.873 30.0409 15.0023 30.0431C15.0023 26.7112 15.0066 23.3814 15.0002 20.0495C17.8752 20.0517 20.748 20.0474 23.6209 20.0517C23.6187 17.7133 23.6123 15.375 23.623 13.0388C27.6532 17.056 31.7179 21.0431 35.7437 25.0668C31.692 29.0582 27.6618 33.0711 23.6187 37.0711ZM26.1424 30.9892C28.151 29.0258 30.1381 27.0431 32.1338 25.0689C30.1489 23.0733 28.1338 21.1077 26.1403 19.1185C26.1424 20.2629 26.1446 21.4095 26.1424 22.5539L17.526 22.556C17.5282 24.2284 17.5325 25.9008 17.5239 27.5733L26.1446 27.5733C26.1424 28.7133 26.1403 29.8513 26.1424 30.9892Z" fill="white"/>
</svg>
