<svg width="40" height="40" viewBox="0 0 40 40" fill="none" xmlns="http://www.w3.org/2000/svg">
<path d="M3.20074 12.7207C3.20074 19.3242 3.19901 25.9276 3.20074 32.5311C3.22832 34.3104 4.85936 35.8311 6.63005 35.788C15.1197 35.8001 23.6094 35.7863 32.099 35.7949L32.1819 35.7952L32.3484 35.7953C32.96 35.7928 33.5838 35.7568 34.1421 35.4897C35.349 34.9794 36.1783 33.7156 36.1697 32.407C36.1801 29.0759 36.1369 25.7449 36.149 22.4139C36.1663 21.6121 35.6835 20.919 35.1387 20.3759C31.9766 17.1018 28.8145 13.8259 25.6456 10.5587C25.0973 9.95523 24.3421 9.54489 23.5318 9.43799C23.1111 9.37764 22.6852 9.39833 22.2628 9.39833C17.0921 9.39661 11.9214 9.40006 6.75074 9.39489C4.9197 9.29316 3.18867 10.8742 3.20074 12.7207ZM5.75074 11.9483C11.6473 11.9828 17.5456 11.9414 23.4404 11.9966C26.7938 15.4742 30.1404 18.957 33.5059 22.4225C24.2456 22.419 14.9852 22.4207 5.72488 22.4207C5.79039 18.9311 5.74212 15.438 5.75074 11.9483Z" fill="white"/>
</svg>
