<svg width="52" height="50" viewBox="0 0 52 50" fill="none" xmlns="http://www.w3.org/2000/svg">
<path d="M20.2412 33.1164C20.558 33.8297 20.8404 34.5582 21.0667 35.3039C15.7132 36.8427 10.3749 38.4375 5.01926 39.9741C5.02572 39.1573 4.98478 38.3427 5.00633 37.528C10.0731 36.0172 15.155 34.5582 20.2412 33.1164ZM29.8555 10C33.933 10.2026 38.1701 10.9353 41.6055 13.2759C44.4072 15.2263 46.7822 18.0108 47.627 21.375C48.3037 23.9677 47.4761 26.709 46.0516 28.8987C44.1658 31.7953 41.3037 34.0259 38.0387 35.1573C34.2542 36.5129 30.1572 36.8103 26.1744 36.4677C25.6141 36.3836 25.0063 36.3513 24.5279 36.0108C24.0257 35.6616 23.8404 35.0474 23.627 34.5043C21.9072 29.1681 21.4093 23.4332 22.2305 17.8836C22.5516 15.8276 23.1593 13.8297 23.7477 11.8384C23.9287 11.1767 24.3231 10.4978 25.0257 10.2996C26.6033 9.92888 28.2477 10.0409 29.8555 10ZM18.905 27.7478C19.1033 28.5108 19.308 29.2716 19.4934 30.0388C14.6831 31.4978 9.84038 32.8448 5.01495 34.2522C5.04728 33.4397 5.0559 32.6272 5.02357 31.8168C9.63133 30.3966 14.2822 29.1207 18.905 27.7478ZM26.1701 12.6918C25.5516 14.2198 25.28 15.8513 24.9029 17.4483C24.7035 18.3254 24.6195 19.2179 24.5472 20.1117L24.5083 20.5993C24.4822 20.9244 24.4552 21.2492 24.4223 21.5733C24.2664 23.1456 24.3882 24.7205 24.5322 26.2899L24.5737 26.7382C24.6015 27.0369 24.6292 27.3354 24.655 27.6336C24.9697 29.7004 25.3792 31.778 26.099 33.7414C26.5904 34.0065 27.1809 33.9634 27.7218 34.0151C31.5968 34.1336 35.668 33.806 39.1141 31.875C41.7111 30.3966 43.9697 28.1379 45.071 25.3276C45.905 23.1228 45.0968 20.6897 43.7542 18.8728C41.6852 15.8685 38.3425 13.9052 34.8016 13.181C31.9718 12.6078 29.0451 12.375 26.1701 12.6918ZM18.7714 22.028C18.8124 22.8405 18.8081 23.653 18.8102 24.4655C14.3145 25.8362 9.80159 27.1616 5.27141 28.4159L5.26943 28.2047L5.26471 27.7817C5.25835 27.1471 5.25956 26.5119 5.32745 25.8815C9.80374 24.5797 14.2671 23.2349 18.7714 22.028ZM19.2908 16.5754C19.2628 17.4116 19.1938 18.2457 19.0473 19.069C14.6033 20.3901 10.1378 21.6422 5.68521 22.931C5.68736 22.1422 5.68952 21.3534 5.6809 20.5668C10.1938 19.1659 14.7369 17.8491 19.2908 16.5754ZM20.9999 10.9741C20.8339 11.7759 20.6486 12.5776 20.3792 13.3534C20.3485 13.5959 20.1444 13.6771 19.9415 13.7408L19.8742 13.7615C19.8297 13.7752 19.7861 13.7888 19.7455 13.8039C15.1917 15.1444 10.6227 16.4267 6.06883 17.7716C6.05374 16.9526 6.04512 16.1315 6.08607 15.3125C11.0624 13.8836 16.0106 12.3513 20.9999 10.9741Z" fill="white"/>
</svg>
