<svg width="50" height="50" viewBox="0 0 50 50" fill="none" xmlns="http://www.w3.org/2000/svg">
<path d="M27.1252 13.0388C27.1296 15.3836 27.1188 17.7263 27.1317 20.069C30.0002 20.0647 32.8709 20.069 35.7416 20.0668C35.7416 23.3987 35.7373 26.7284 35.7438 30.0603C32.8688 30.0582 29.9959 30.0625 27.1231 30.0582C27.1252 32.3966 27.1317 34.7349 27.1209 37.0711C23.0908 33.0539 19.0261 29.0668 15.0002 25.0431C19.052 21.0517 23.0821 17.0388 27.1252 13.0388ZM24.6015 19.1207C22.5929 21.0841 20.6058 23.0668 18.6102 25.041C20.5951 27.0366 22.6102 29.0022 24.6037 30.9914C24.6015 29.847 24.5994 28.7004 24.6015 27.556L33.2179 27.5539C33.2158 25.8815 33.2115 24.2091 33.2201 22.5366H24.5994C24.6015 21.3966 24.6037 20.2586 24.6015 19.1207Z" fill="white"/>
</svg>
