<svg width="40" height="40" viewBox="0 0 40 40" fill="none" xmlns="http://www.w3.org/2000/svg">
<path d="M13.4947 9.34488C13.8119 10.0449 14.105 10.7552 14.4274 11.45C11.8274 12.7535 9.66537 14.9397 8.47744 17.6035C7.28089 20.2449 7.03261 23.3035 7.81365 26.0983C8.60848 29.0414 10.5343 31.6501 13.0861 33.3104C15.4516 34.8604 18.3516 35.5759 21.1671 35.2914C23.4895 35.0776 25.7412 34.1863 27.5912 32.7673C29.8826 31.0294 31.5481 28.4811 32.205 25.6794C32.9395 22.6138 32.4705 19.2742 30.893 16.5414C29.6585 14.3587 27.7481 12.5914 25.5136 11.469C25.8395 10.7604 26.1843 10.0587 26.5257 9.35695C29.7326 10.9294 32.3688 13.6552 33.7585 16.9518C35.0964 20.0794 35.3171 23.6673 34.3809 26.9363C33.5257 29.9414 31.6947 32.6587 29.2309 34.5776C26.6274 36.6294 23.3188 37.7845 19.9999 37.7449C16.6809 37.7828 13.374 36.6259 10.7705 34.5725C8.20848 32.5742 6.33089 29.7121 5.52572 26.5638C4.61365 23.0552 5.03261 19.2173 6.69813 15.9949C8.16365 13.1156 10.605 10.7759 13.4947 9.34488ZM21.1826 2.32591C21.1671 9.1466 21.1878 15.9656 21.1723 22.7863C20.3912 22.7828 19.6085 22.7845 18.8274 22.7845C18.8119 15.9656 18.8326 9.1466 18.8171 2.32591C19.605 2.32418 20.3947 2.32418 21.1826 2.32591Z" fill="white"/>
</svg>
