<svg width="40" height="40" viewBox="0 0 40 40" fill="none" xmlns="http://www.w3.org/2000/svg">
<path d="M36.1706 12.7207C36.1706 19.3242 36.1723 25.9276 36.1706 32.5311C36.143 34.3104 34.512 35.8311 32.7413 35.788C24.2516 35.8001 15.762 35.7863 7.27232 35.7949L7.18943 35.7952L7.02297 35.7953C6.41133 35.7928 5.78756 35.7568 5.22922 35.4897C4.02232 34.9794 3.19301 33.7156 3.20163 32.407C3.19129 29.0759 3.23439 25.7449 3.22232 22.4139C3.20508 21.6121 3.68784 20.919 4.23267 20.3759C7.39473 17.1018 10.5568 13.8259 13.7258 10.5587C14.274 9.95523 15.0292 9.54489 15.8396 9.43799C16.2603 9.37764 16.6861 9.39833 17.1085 9.39833C22.2792 9.39661 27.4499 9.40006 32.6206 9.39489C34.4516 9.29316 36.1827 10.8742 36.1706 12.7207ZM33.6206 11.9483C27.724 11.9828 21.8258 11.9414 15.9309 11.9966C12.5775 15.4742 9.23094 18.957 5.86542 22.4225C15.1258 22.419 24.3861 22.4207 33.6465 22.4207C33.5809 18.9311 33.6292 15.438 33.6206 11.9483Z" fill="white"/>
</svg>
