<svg width="50" height="50" viewBox="0 0 50 50" fill="none" xmlns="http://www.w3.org/2000/svg">
<path d="M23.5446 14.0379C26.4157 14.1668 29.2868 14.3512 32.1579 14.5223C32.9735 14.5845 33.8935 14.6423 34.4801 15.2912C36.0023 16.7845 37.4668 18.3356 38.9712 19.8467C40.3223 18.5956 41.6335 17.2979 43.0312 16.0979C43.6157 15.5445 44.4512 15.6579 45.1779 15.7401C45.3423 16.3601 45.5157 16.9801 45.6779 17.6023C45.6121 17.5937 45.5462 17.5842 45.4802 17.5744L45.282 17.5443C44.9181 17.4892 44.5518 17.4401 44.1868 17.489C43.0735 18.6356 42.2023 20.0023 41.2179 21.2623C43.1268 21.7445 45.0379 22.2223 46.9512 22.6956C47.3468 24.1667 47.709 25.6467 48.109 27.1156C47.1557 28.3623 46.3023 29.6867 45.3201 30.9112C44.1646 31.2801 42.9512 31.4534 41.7712 31.7467C41.909 33.3179 41.0979 34.9401 39.6668 35.6445C38.0979 36.4912 35.9823 36.0734 34.8646 34.6779C34.2468 33.989 34.0135 33.0712 33.9112 32.1756C27.9446 32.1845 21.9779 32.1756 16.0112 32.1779C15.8512 33.4001 15.1912 34.5823 14.1023 35.2023C12.4512 36.2312 10.069 35.7712 8.94457 34.1779C8.34012 33.4179 8.17123 32.4312 8.16012 31.4867C6.66901 31.0312 5.18457 30.5534 3.69345 30.089C3.09568 28.8423 2.51345 27.5845 1.90234 26.3445C2.65568 25.3245 3.40901 24.3067 4.16901 23.2934C4.30901 23.0712 4.51345 22.9045 4.7779 22.8645C8.13568 22.1445 11.5223 21.5379 14.8735 20.7979C17.0401 18.8379 19.0957 16.7467 21.2535 14.7756C21.869 14.2001 22.7112 13.9579 23.5446 14.0379ZM22.9668 16.7023C21.2357 18.4001 19.5023 20.0956 17.7846 21.8067C23.1023 21.8023 28.4179 21.8045 33.7335 21.8045C33.3335 20.2801 32.9068 18.7601 32.489 17.2379C29.3135 17.0734 26.1423 16.8556 22.9668 16.7023Z" fill="white"/>
</svg>
