<svg width="50" height="50" viewBox="0 0 50 50" fill="none" xmlns="http://www.w3.org/2000/svg">
<path d="M39.7604 14.1959C43.1166 16.0875 45.9979 19.1438 47.0354 22.9209C47.6979 25.2709 47.1166 27.798 45.9354 29.8813C44.2479 32.8501 41.5396 35.2188 38.3854 36.5188C34.4417 38.1605 30.0771 38.5146 25.8521 38.2001C25.0292 38.1105 24.0187 38.0501 23.5396 37.2563C22.9729 36.2376 22.7396 35.0792 22.4333 33.9646C21.2729 29.4876 21.0271 24.7896 21.5896 20.2042C21.8937 17.8875 22.5687 15.6438 23.2396 13.4146C23.425 12.7438 23.9104 12.1209 24.6187 11.9688C25.6458 11.7396 26.7062 11.7584 27.7521 11.7271C31.8542 11.6667 36.0937 12.2625 39.7604 14.1959ZM19.6833 34.6063C19.95 35.4084 20.2271 36.2084 20.5437 36.9938C15.1854 36.9917 9.82915 36.9896 4.4729 36.9959C4.47498 36.198 4.47498 35.4021 4.47498 34.6063C9.54373 34.6084 14.6146 34.6084 19.6833 34.6063ZM28.5458 14.2563C27.6042 14.2792 26.6292 14.2 25.7104 14.4292C25.1708 15.1834 25.0708 16.2 24.8208 17.0875C23.4458 22.3751 23.5083 28.0105 24.8916 33.2896C24.9273 33.4198 24.9604 33.5512 24.9928 33.683L25.057 33.9473C25.1855 34.4761 25.3206 35.0052 25.575 35.4876C26.3125 35.7542 27.1166 35.7167 27.8896 35.7605C30.4 35.7917 32.9375 35.5917 35.3625 34.9126C38.9166 33.9146 42.0958 31.5417 43.9312 28.323C44.8375 26.7938 45.15 24.8834 44.5479 23.1834C43.7354 20.8521 42.0687 18.8709 40.0916 17.425C36.7812 14.9855 32.5521 14.375 28.5458 14.2563ZM18.4854 29.2042C18.6125 30.0042 18.7354 30.8042 18.9021 31.5959C14.0917 31.5959 9.28332 31.5917 4.4729 31.598C4.47498 30.8001 4.47498 30.0001 4.4729 29.2021C9.14373 29.2021 13.8146 29.2001 18.4854 29.2042ZM4.4729 23.7792C9.0604 23.7813 13.65 23.7792 18.2375 23.7813C18.2187 24.5771 18.2208 25.375 18.2375 26.173C13.65 26.1688 9.0604 26.1688 4.4729 26.173C4.47498 25.375 4.47498 24.5771 4.4729 23.7792ZM18.8958 18.3792C18.7291 19.173 18.6062 19.973 18.4812 20.7751C13.8125 20.7751 9.14165 20.7688 4.4729 20.7771C4.47498 19.9771 4.47498 19.175 4.4729 18.375C9.28123 18.3771 14.0875 18.3709 18.8958 18.3792ZM20.525 12.9542C20.3771 13.3553 20.2323 13.7579 20.0885 14.161L19.6583 15.3709C14.5958 15.3917 9.5354 15.3417 4.4729 15.3521C4.47498 14.5521 4.47498 13.7521 4.4729 12.9542C9.8229 12.9521 15.175 12.9542 20.525 12.9542Z" fill="white"/>
</svg>
