<svg width="50" height="50" viewBox="0 0 50 50" fill="none" xmlns="http://www.w3.org/2000/svg">
<path d="M25.0023 7.77151C31.6424 19.2801 38.2803 30.7887 44.9333 42.2887C31.6488 42.2844 18.3622 42.2844 5.07556 42.2887C11.7264 30.7866 18.3708 19.2823 25.0023 7.77151ZM25.0044 12.8146C19.8234 21.8125 14.6381 30.8038 9.43548 39.7866C19.8169 39.7931 30.2006 39.7931 40.5842 39.7887C35.3751 30.806 30.1898 21.8103 25.0044 12.8146ZM24.9958 17.7069C28.7803 24.2543 32.5756 30.7974 36.3773 37.334C28.7997 37.334 21.2221 37.3319 13.6467 37.334C17.4419 30.7995 21.2178 24.2521 24.9958 17.7069ZM24.9958 22.7155C22.6747 26.7543 20.3428 30.7887 18.0044 34.8168C22.6812 34.8103 27.3579 34.8146 32.0346 34.8146C29.679 30.7866 27.3299 26.7543 24.9958 22.7155Z" fill="#FF0000"/>
</svg>
