{
    "asset" : {
        "generator" : "Khronos glTF Blender I/O v1.4.40",
        "version" : "2.0"
    },
    "scene" : 0,
    "scenes" : [
        {
            "name" : "Scene",
            "nodes" : [
                0
            ]
        }
    ],
    "nodes" : [
        {
            "mesh" : 0,
            "name" : "Cube.001",
            "scale" : [
                0.6417319774627686,
                0.07836717367172241,
                0.8922409415245056
            ],
            "translation" : [
                0,
                0.28916075825691223,
                0
            ]
        }
    ],
    "materials" : [
        {
            "doubleSided" : true,
            "name" : "battery",
            "pbrMetallicRoughness" : {
                "baseColorFactor" : [
                    0.800000011920929,
                    0.800000011920929,
                    0.800000011920929,
                    1
                ],
                "roughnessFactor" : 0.37068966031074524
            }
        }
    ],
    "meshes" : [
        {
            "name" : "Cube.001",
            "primitives" : [
                {
                    "attributes" : {
                        "POSITION" : 0,
                        "NORMAL" : 1,
                        "TEXCOORD_0" : 2
                    },
                    "indices" : 3,
                    "material" : 0
                }
            ]
        }
    ],
    "accessors" : [
        {
            "bufferView" : 0,
            "componentType" : 5126,
            "count" : 5012,
            "max" : [
                1,
                1.7386655807495117,
                1
            ],
            "min" : [
                -1,
                0.43005049228668213,
                -1
            ],
            "type" : "VEC3"
        },
        {
            "bufferView" : 1,
            "componentType" : 5126,
            "count" : 5012,
            "type" : "VEC3"
        },
        {
            "bufferView" : 2,
            "componentType" : 5126,
            "count" : 5012,
            "type" : "VEC2"
        },
        {
            "bufferView" : 3,
            "componentType" : 5123,
            "count" : 8292,
            "type" : "SCALAR"
        }
    ],
    "bufferViews" : [
        {
            "buffer" : 0,
            "byteLength" : 60144,
            "byteOffset" : 0
        },
        {
            "buffer" : 0,
            "byteLength" : 60144,
            "byteOffset" : 60144
        },
        {
            "buffer" : 0,
            "byteLength" : 40096,
            "byteOffset" : 120288
        },
        {
            "buffer" : 0,
            "byteLength" : 16584,
            "byteOffset" : 160384
        }
    ],
    "buffers" : [
        {
            "byteLength" : 176968,
            "uri" : "data:application/octet-stream;base64,"
        }
    ]
}
